<svg width="23" height="23" viewBox="0 0 23 23" fill="none" xmlns="http://www.w3.org/2000/svg">
<path d="M5.70552 18.8315C4.861 18.8315 4.16698 18.1872 4.08825 17.3633L4.08081 17.2068V5.29226C4.08081 4.44774 4.72516 3.75372 5.54905 3.67499L5.70552 3.66755H10.5797C11.4242 3.66755 12.1182 4.3119 12.1969 5.13579L12.2044 5.29226V5.56785L14.5749 3.10993C15.1587 2.50425 16.0992 2.44976 16.7488 2.96033L16.8746 3.06999L19.8615 6.02116C20.4599 6.61244 20.5027 7.55352 19.9813 8.19956L19.8695 8.32464L17.3666 10.7073L17.6201 10.708C18.4646 10.708 19.1586 11.3523 19.2373 12.1762L19.2448 12.3327V17.2068C19.2448 18.0513 18.6004 18.7454 17.7765 18.8241L17.6201 18.8315H5.70552ZM11.1212 11.7911H5.16395V17.2068C5.16395 17.4394 5.31063 17.6378 5.51655 17.7145L5.60817 17.7397L5.70552 17.7484H11.1212V11.7911ZM17.6201 11.7911H12.2044V17.7484H17.6201C17.8859 17.7484 18.1071 17.5568 18.1529 17.3042L18.1616 17.2068V12.3327C18.1616 12.0668 17.9701 11.8457 17.7174 11.7998L17.6201 11.7911ZM12.2044 8.76853V10.7073H14.1432L12.2044 8.76853ZM10.5797 4.75069H5.70552C5.43965 4.75069 5.21853 4.94227 5.17268 5.19492L5.16395 5.29226V10.708H11.1212V5.29226C11.1212 5.05963 10.9745 4.86125 10.7686 4.78458L10.677 4.75942L10.5797 4.75069ZM16.1278 3.85456C15.9299 3.66378 15.6371 3.64757 15.4286 3.79757L15.3548 3.8616L12.5212 6.80139C12.342 6.98738 12.322 7.26901 12.4596 7.47636L12.5282 7.56018L15.3614 10.3934C15.5433 10.5752 15.8231 10.6011 16.0328 10.4689L16.1179 10.4026L19.1048 7.55753C19.2917 7.36842 19.3108 7.07647 19.1633 6.86628L19.1002 6.79164L16.1278 3.85456Z" fill="#7780A1"/>
</svg>
