<svg width="22" height="23" viewBox="0 0 22 23" fill="none" xmlns="http://www.w3.org/2000/svg">
<path d="M15.1645 8.37316C15.1645 9.27046 14.4371 9.99787 13.5398 9.99787C12.6425 9.99787 11.9151 9.27046 11.9151 8.37316C11.9151 7.47585 12.6425 6.74845 13.5398 6.74845C14.4371 6.74845 15.1645 7.47585 15.1645 8.37316ZM14.0814 8.37316C14.0814 8.07406 13.8389 7.83159 13.5398 7.83159C13.2407 7.83159 12.9983 8.07406 12.9983 8.37316C12.9983 8.67226 13.2407 8.91473 13.5398 8.91473C13.8389 8.91473 14.0814 8.67226 14.0814 8.37316ZM3.25 6.74845C3.25 4.95384 4.70482 3.49902 6.49942 3.49902H15.1645C16.9592 3.49902 18.414 4.95384 18.414 6.74845V15.4136C18.414 17.2082 16.9592 18.663 15.1645 18.663H6.49942C4.70482 18.663 3.25 17.2082 3.25 15.4136V6.74845ZM6.49942 4.58216C5.30302 4.58216 4.33314 5.55204 4.33314 6.74845V15.4136C4.33314 15.8172 4.44352 16.195 4.63574 16.5185L9.69326 11.549C10.3254 10.9278 11.3386 10.9278 11.9707 11.549L17.0282 16.5185C17.2205 16.195 17.3308 15.8172 17.3308 15.4136V6.74845C17.3308 5.55204 16.361 4.58216 15.1645 4.58216H6.49942ZM6.49942 17.5799H15.1645C15.5644 17.5799 15.9389 17.4715 16.2604 17.2826L11.2116 12.3215C11.0009 12.1145 10.6631 12.1145 10.4524 12.3215L5.40354 17.2826C5.72504 17.4715 6.09958 17.5799 6.49942 17.5799Z" fill="#7780A1"/>
</svg>
